<svg viewBox="0 0 27 11" fill="currentcolor" xmlns="http://www.w3.org/2000/svg">
<path d="M8.41512 8.75H3.54012L2.61012 11H0.120117L4.80012 0.5H7.20012L11.8951 11H9.34512L8.41512 8.75ZM7.65012 6.905L5.98512 2.885L4.32012 6.905H7.65012Z" fill="currentcolor"/>
<path d="M12.411 5.84H16.656V7.715H12.411V5.84Z" fill="currentcolor"/>
<path d="M26.7848 0.5V11H24.3848V8.21H22.1648L20.3048 11H17.7398L19.9298 7.835C19.2198 7.545 18.6748 7.11 18.2948 6.53C17.9148 5.94 17.7248 5.235 17.7248 4.415C17.7248 3.605 17.9098 2.91 18.2798 2.33C18.6498 1.74 19.1748 1.29 19.8548 0.98C20.5348 0.66 21.3348 0.5 22.2548 0.5H26.7848ZM22.3148 2.48C21.6248 2.48 21.0948 2.64 20.7248 2.96C20.3648 3.28 20.1848 3.755 20.1848 4.385C20.1848 4.995 20.3598 5.465 20.7098 5.795C21.0598 6.125 21.5748 6.29 22.2548 6.29H24.3848V2.48H22.3148Z" fill="currentcolor"/>
</svg>
