<svg width="100%" height="100%" viewBox="0 0 19 19" fill="currentcolor" xmlns="http://www.w3.org/2000/svg">
<path d="M16.401 10.3391C16.6234 10.1164 16.7483 9.81458 16.7483 9.49989C16.7483 9.18521 16.6234 8.88338 16.401 8.66073L11.9233 4.18069C11.7005 3.95791 11.3984 3.83276 11.0833 3.83276C10.7683 3.83276 10.4662 3.95791 10.2434 4.18069C10.0206 4.40346 9.89547 4.7056 9.89547 5.02064C9.89547 5.33569 10.0206 5.63783 10.2434 5.8606L12.6944 8.31239L3.56251 8.31239C3.24757 8.31239 2.94552 8.4375 2.72282 8.6602C2.50013 8.8829 2.37501 9.18495 2.37501 9.49989C2.37501 9.81484 2.50013 10.1169 2.72282 10.3396C2.94552 10.5623 3.24757 10.6874 3.56251 10.6874L12.6944 10.6874L10.2434 13.1384C10.1331 13.2487 10.0456 13.3796 9.98589 13.5238C9.92619 13.6679 9.89547 13.8224 9.89547 13.9784C9.89547 14.1343 9.92619 14.2888 9.98589 14.4329C10.0456 14.5771 10.1331 14.708 10.2434 14.8183C10.3537 14.9286 10.4846 15.0161 10.6288 15.0758C10.7729 15.1355 10.9274 15.1662 11.0833 15.1662C11.2393 15.1662 11.3938 15.1355 11.5379 15.0758C11.682 15.0161 11.813 14.9286 11.9233 14.8183L16.401 10.3391Z" fill="currentcolor"/>
</svg>
