<svg viewBox="0 0 16 16" fill="currentcolor" xmlns="http://www.w3.org/2000/svg">

<path id="Vector" d="M5.29246 1.63599C5.10499 1.82351 4.99968 2.07782 4.99968 2.34299C4.99968 2.60815 5.10499 2.86246 5.29246 3.04999L10.2425 7.99999L5.29246 12.95C5.11031 13.1386 5.00951 13.3912 5.01179 13.6534C5.01407 13.9156 5.11924 14.1664 5.30465 14.3518C5.49005 14.5372 5.74087 14.6424 6.00306 14.6447C6.26526 14.6469 6.51786 14.5461 6.70646 14.364L12.3635 8.70699C12.5509 8.51946 12.6563 8.26515 12.6563 7.99999C12.6563 7.73482 12.5509 7.48052 12.3635 7.29299L6.70646 1.63599C6.51894 1.44852 6.26463 1.3432 5.99946 1.3432C5.7343 1.3432 5.47999 1.44852 5.29246 1.63599Z" fill="currentcolor"/>

</svg>
