<svg viewBox="0 0 16 16" fill="none" xmlns="http://www.w3.org/2000/svg">
<g id="ep:arrow-up-bold">
<path id="Vector" d="M14.364 5.29301C14.1765 5.10554 13.9222 5.00023 13.657 5.00023C13.3918 5.00023 13.1375 5.10554 12.95 5.29301L8 10.243L3.05 5.29301C2.86139 5.11085 2.60879 5.01006 2.34659 5.01234C2.0844 5.01462 1.83359 5.11979 1.64818 5.30519C1.46277 5.4906 1.3576 5.74141 1.35532 6.00361C1.35304 6.26581 1.45384 6.51841 1.636 6.70701L7.293 12.364C7.48052 12.5515 7.73483 12.6568 8 12.6568C8.26516 12.6568 8.51947 12.5515 8.707 12.364L14.364 6.70701C14.5515 6.51949 14.6568 6.26518 14.6568 6.00001C14.6568 5.73485 14.5515 5.48054 14.364 5.29301Z" fill="white"/>
</g>
</svg>
