<svg viewBox="0 0 28 28" fill="currentcolor" xmlns="http://www.w3.org/2000/svg">
<path id="Vector" d="M19.8334 21C18.5384 21 17.5 22.0383 17.5 23.3333C17.5 23.9522 17.7459 24.5457 18.1834 24.9833C18.621 25.4208 19.2145 25.6667 19.8334 25.6667C20.4522 25.6667 21.0457 25.4208 21.4833 24.9833C21.9209 24.5457 22.1667 23.9522 22.1667 23.3333C22.1667 22.7145 21.9209 22.121 21.4833 21.6834C21.0457 21.2458 20.4522 21 19.8334 21ZM1.16669 2.33334V4.66668H3.50002L7.70002 13.5217L6.11335 16.38C5.93835 16.7067 5.83335 17.0917 5.83335 17.5C5.83335 18.1188 6.07919 18.7123 6.51677 19.1499C6.95436 19.5875 7.54785 19.8333 8.16669 19.8333H22.1667V17.5H8.65669C8.57933 17.5 8.50515 17.4693 8.45045 17.4146C8.39575 17.3599 8.36502 17.2857 8.36502 17.2083C8.36502 17.15 8.37669 17.1033 8.40002 17.0683L9.45002 15.1667H18.1417C19.0167 15.1667 19.7867 14.6767 20.1834 13.965L24.36 6.41668C24.4417 6.23001 24.5 6.03168 24.5 5.83334C24.5 5.52392 24.3771 5.22718 24.1583 5.00839C23.9395 4.78959 23.6428 4.66668 23.3334 4.66668H6.07835L4.98169 2.33334M8.16669 21C6.87169 21 5.83335 22.0383 5.83335 23.3333C5.83335 23.9522 6.07919 24.5457 6.51677 24.9833C6.95436 25.4208 7.54785 25.6667 8.16669 25.6667C8.78553 25.6667 9.37902 25.4208 9.8166 24.9833C10.2542 24.5457 10.5 23.9522 10.5 23.3333C10.5 22.7145 10.2542 22.121 9.8166 21.6834C9.37902 21.2458 8.78553 21 8.16669 21Z" fill="currentcolor"/>
</svg>
