<svg viewBox="0 0 26 26" fill="none" xmlns="http://www.w3.org/2000/svg">
<path d="M11.5591 22.75C11.18 22.75 10.8875 22.4141 10.9416 22.035L11.9166 15.1666H8.12497C7.17164 15.1666 7.76747 14.3541 7.78914 14.3216C9.15414 11.9058 11.2016 8.33081 13.91 3.56414C13.9829 3.43906 14.0969 3.34317 14.2327 3.29283C14.3684 3.2425 14.5175 3.24085 14.6543 3.28817C14.7911 3.33548 14.9073 3.42883 14.9829 3.55226C15.0586 3.6757 15.0891 3.82157 15.0691 3.96497L14.0941 10.8333H17.8966C18.33 10.8333 18.5683 11.0391 18.33 11.5483C14.7658 17.7666 12.6966 21.3958 12.1008 22.4358C11.9925 22.6308 11.7866 22.75 11.5591 22.75Z" fill="#1C1C1C"/>
</svg>
