<svg viewBox="0 0 26 26" fill="none" xmlns="http://www.w3.org/2000/svg">
<path d="M5.41675 21.125V6.71667C5.41675 5.50333 5.41675 4.89667 5.65291 4.433C5.86091 4.02458 6.19133 3.69417 6.59975 3.48617C7.06341 3.25 7.67008 3.25 8.88341 3.25H18.8501C19.4567 3.25 19.7601 3.25 19.993 3.36808C20.1964 3.47213 20.3618 3.63783 20.4653 3.8415C20.5834 4.07333 20.5834 4.37667 20.5834 4.98333V17.7667C20.5834 18.3733 20.5834 18.6767 20.4642 18.9085C20.3611 19.1121 20.1961 19.2778 19.993 19.3819C19.7601 19.5 19.4567 19.5 18.8522 19.5H7.85425C7.20778 19.5 6.5878 19.7568 6.13068 20.2139C5.67356 20.671 5.41675 21.291 5.41675 21.9375C5.41675 22.386 5.78075 22.75 6.22925 22.75H17.7689C18.3745 22.75 18.6789 22.75 18.9097 22.6319C19.1132 22.528 19.2785 22.3623 19.382 22.1585C19.5001 21.9267 19.5001 21.6233 19.5001 21.0167V19.5" stroke="#1C1C1C" stroke-width="2" stroke-linecap="round" stroke-linejoin="round"/>
</svg>
