<svg viewBox="0 0 40 40" fill="none" xmlns="http://www.w3.org/2000/svg">
<circle cx="20" cy="20" r="20" fill="#F43B3B"/>
<g clip-path="url(#clip0_663_4471)">
<path d="M31.9787 19.3418C31.8418 18.6752 31.6287 17.7704 30.7215 17.8186C29.5708 17.8838 29.4399 17.2144 29.1751 16.5167C28.8707 15.6828 28.4141 14.8829 28.1949 14.0291C27.7322 12.2393 26.344 11.5671 24.615 11.326C21.5883 10.896 18.5092 10.896 15.4825 11.326C13.7139 11.5671 12.2618 12.2393 11.7626 14.0717C11.5191 14.9708 11.0442 15.8218 10.7398 16.6954C10.5236 17.3619 10.3349 17.847 9.37296 17.8073C8.41101 17.7675 8.20705 18.5958 8.03658 19.2567C7.82653 20.0792 8.55104 19.9771 9.08681 20.014C9.44906 20.0367 9.43384 20.2296 9.35469 20.4905C8.95895 21.8208 9.29381 23.1851 9.17204 24.3084V25.9308C9.19031 29.3345 8.74586 28.9374 12.4841 28.9913C13.5708 28.9913 14.1096 28.6481 13.9818 27.61C13.9057 26.9888 14.0488 26.7051 14.8433 26.7137C18.2984 26.759 21.7565 26.7505 25.2116 26.7137C25.8905 26.7137 26.1005 26.9235 26.0183 27.5135C25.8478 28.7417 26.5541 29.0736 27.723 28.98C28.3232 28.9459 28.925 28.9459 29.5252 28.98C30.3836 29.0083 30.8585 28.6963 30.8311 27.8454C30.7428 25.4231 31.0107 22.9923 30.6728 20.5756C30.6302 20.275 30.4932 20.0282 30.9772 20.0083C31.4612 19.9885 32.1249 20.048 31.9787 19.3418ZM15.1507 22.9554C14.9985 23.4716 14.4475 23.3865 14.0122 23.412C13.6652 23.4319 13.3121 23.412 12.5602 23.412C12.1446 23.4055 11.7298 23.3752 11.3182 23.3213C10.2923 23.1681 10.2953 22.4363 10.3897 21.713C10.5023 20.8309 11.166 20.8394 11.8387 21.0493C12.685 21.3102 13.516 21.6166 14.341 21.9513C14.8007 22.1357 15.3273 22.3654 15.1507 22.9554ZM20.2618 18.8766C17.9406 18.9024 15.622 18.7248 13.3364 18.3462C12.4932 18.2072 12.1188 18.0455 12.4445 17.1208C13.9148 12.9853 13.1355 12.9853 18.4354 12.7272C20.384 12.6153 22.3398 12.6837 24.274 12.9314C25.6165 13.1215 26.5084 13.6178 26.7733 14.9169C26.835 15.1419 26.9102 15.3635 26.9985 15.5807C27.9909 18.6383 28.5206 18.02 24.8433 18.6043C23.3301 18.8406 21.795 18.9318 20.2618 18.8766ZM28.481 23.3525C27.9361 23.395 27.3851 23.412 26.8067 23.4404C26.1614 23.2617 25.0807 23.795 24.8798 22.91C24.6637 21.9513 25.86 21.9343 26.5115 21.6081C26.9967 21.3797 27.507 21.2009 28.0335 21.0748C28.7459 20.8876 29.4673 20.7713 29.6013 21.7584C29.7322 22.5838 29.583 23.2674 28.4902 23.3525H28.481Z" fill="white"/>
</g>
<defs>
<clipPath id="clip0_663_4471">
<rect width="24" height="18" fill="white" transform="translate(8 11)"/>
</clipPath>
</defs>
</svg>
