<svg viewBox="0 0 26 26" fill="none" xmlns="http://www.w3.org/2000/svg">
<path d="M7.58325 11.9167C7.58325 11.342 7.81153 10.7909 8.21785 10.3846C8.62418 9.97827 9.17528 9.75 9.74992 9.75H20.5833C21.1579 9.75 21.709 9.97827 22.1153 10.3846C22.5216 10.7909 22.7499 11.342 22.7499 11.9167V18.4167C22.7499 18.9913 22.5216 19.5424 22.1153 19.9487C21.709 20.3551 21.1579 20.5833 20.5833 20.5833H9.74992C9.17528 20.5833 8.62418 20.3551 8.21785 19.9487C7.81153 19.5424 7.58325 18.9913 7.58325 18.4167V11.9167Z" stroke="#1C1C1C" stroke-width="2" stroke-linecap="round" stroke-linejoin="round"/>
<path d="M18.4167 9.75002V7.58335C18.4167 7.00872 18.1884 6.45762 17.7821 6.05129C17.3757 5.64496 16.8246 5.41669 16.25 5.41669H5.41667C4.84203 5.41669 4.29093 5.64496 3.8846 6.05129C3.47827 6.45762 3.25 7.00872 3.25 7.58335V14.0834C3.25 14.658 3.47827 15.2091 3.8846 15.6154C4.29093 16.0217 4.84203 16.25 5.41667 16.25H7.58333M13 15.1667C13 15.7413 13.2283 16.2924 13.6346 16.6988C14.0409 17.1051 14.592 17.3334 15.1667 17.3334C15.7413 17.3334 16.2924 17.1051 16.6987 16.6988C17.1051 16.2924 17.3333 15.7413 17.3333 15.1667C17.3333 14.5921 17.1051 14.041 16.6987 13.6346C16.2924 13.2283 15.7413 13 15.1667 13C14.592 13 14.0409 13.2283 13.6346 13.6346C13.2283 14.041 13 14.5921 13 15.1667Z" stroke="#1C1C1C" stroke-width="2" stroke-linecap="round" stroke-linejoin="round"/>
</svg>
