<svg width="26" height="26" viewBox="0 0 26 26" fill="none" xmlns="http://www.w3.org/2000/svg">
<path d="M4.33336 20.5833L3.32586 20.1825C3.25388 20.3636 3.23209 20.5608 3.2628 20.7533C3.29351 20.9458 3.37558 21.1264 3.50036 21.2761C3.62514 21.4259 3.78801 21.5392 3.97179 21.6041C4.15558 21.669 4.35347 21.6831 4.54461 21.645L4.33336 20.5833ZM9.43153 19.5693L9.94503 18.6149L9.60161 18.4307L9.22028 18.5066L9.43153 19.5693ZM6.0927 16.1601L7.1002 16.5609L7.27678 16.1124L7.06445 15.6801L6.0927 16.1601ZM20.5834 13C20.5834 16.5165 17.4926 19.5 13.5092 19.5V21.6666C18.5369 21.6666 22.75 17.8598 22.75 13H20.5834ZM6.43611 13C6.43611 9.48348 9.52795 6.49998 13.5103 6.49998V4.33331C8.48253 4.33331 4.26836 8.14015 4.26836 13H6.43611ZM13.5103 6.49998C17.4926 6.49998 20.5834 9.48348 20.5834 13H22.75C22.75 8.14015 18.538 4.33331 13.5103 4.33331V6.49998ZM13.5092 19.5C12.2038 19.5 10.9883 19.175 9.94503 18.6149L8.91803 20.5226C10.3305 21.2781 11.9074 21.6712 13.5092 21.6666V19.5ZM4.54461 21.645L9.64278 20.631L9.22028 18.5066L4.12211 19.5206L4.54461 21.6461V21.645ZM7.06445 15.6801C6.6507 14.8473 6.43636 13.93 6.43611 13H4.26836C4.26836 14.3 4.57386 15.5328 5.11986 16.64L7.06445 15.6801ZM5.08628 15.7592L3.32586 20.1836L5.3387 20.9831L7.09803 16.5598L5.0852 15.7592H5.08628Z" fill="#1C1C1C"/>
<path d="M9.75008 14.0833C10.3484 14.0833 10.8334 13.5983 10.8334 13C10.8334 12.4017 10.3484 11.9166 9.75008 11.9166C9.15177 11.9166 8.66675 12.4017 8.66675 13C8.66675 13.5983 9.15177 14.0833 9.75008 14.0833Z" fill="#1C1C1C"/>
<path d="M13.5416 14.0833C14.1399 14.0833 14.6249 13.5983 14.6249 13C14.6249 12.4017 14.1399 11.9166 13.5416 11.9166C12.9433 11.9166 12.4583 12.4017 12.4583 13C12.4583 13.5983 12.9433 14.0833 13.5416 14.0833Z" fill="#1C1C1C"/>
<path d="M17.3333 14.0833C17.9316 14.0833 18.4167 13.5983 18.4167 13C18.4167 12.4017 17.9316 11.9166 17.3333 11.9166C16.735 11.9166 16.25 12.4017 16.25 13C16.25 13.5983 16.735 14.0833 17.3333 14.0833Z" fill="#1C1C1C"/>
</svg>
