<svg viewBox="0 0 26 26" fill="none" xmlns="http://www.w3.org/2000/svg">
<path id="Vector" d="M13.612 6.93164H12.3907C12.279 6.93164 12.1876 7.02305 12.1876 7.13477V14.1248C12.1876 14.1908 12.218 14.2518 12.2714 14.2898L16.4684 17.3545C16.5598 17.4205 16.6868 17.4027 16.7528 17.3113L17.479 16.3211C17.5475 16.2272 17.5272 16.1002 17.4358 16.0367L13.8151 13.4189V7.13477C13.8151 7.02305 13.7237 6.93164 13.612 6.93164ZM19.1928 8.84102L23.1741 9.81348C23.3011 9.84395 23.4255 9.74746 23.4255 9.61797L23.4458 5.51739C23.4458 5.34727 23.2503 5.25078 23.1182 5.35742L19.1167 8.48301C19.0864 8.50641 19.0634 8.53786 19.0502 8.57376C19.0371 8.60966 19.0343 8.64855 19.0423 8.68595C19.0502 8.72334 19.0686 8.75774 19.0952 8.78517C19.1219 8.8126 19.1557 8.83196 19.1928 8.84102ZM23.4509 16.4861L22.0112 15.991C21.961 15.9738 21.9061 15.9769 21.8582 15.9997C21.8102 16.0225 21.7731 16.0631 21.7548 16.1129C21.7065 16.2424 21.6557 16.3693 21.6024 16.4963C21.1505 17.5652 20.503 18.5275 19.6753 19.3527C18.8567 20.1738 17.8867 20.8283 16.8188 21.2799C15.7126 21.7476 14.5235 21.9876 13.3225 21.9857C12.1089 21.9857 10.9333 21.7496 9.82625 21.2799C8.75842 20.8283 7.78835 20.1738 6.9698 19.3527C6.14461 18.5275 5.49715 17.5652 5.04265 16.4963C4.57754 15.3895 4.33924 14.2006 4.34187 13C4.34187 11.7863 4.57801 10.6082 5.04773 9.50118C5.49968 8.43223 6.14715 7.46993 6.97488 6.64473C7.79342 5.82365 8.7635 5.16917 9.83133 4.71758C10.9333 4.24785 12.1114 4.01172 13.3251 4.01172C14.5387 4.01172 15.7143 4.24785 16.8214 4.71758C17.8892 5.16917 18.8593 5.82365 19.6778 6.64473C19.9368 6.90625 20.1805 7.17793 20.404 7.46485L21.9223 6.27657C19.9241 3.72227 16.8137 2.0795 13.32 2.08203C7.2364 2.08457 2.35125 7.02559 2.41219 13.1117C2.47312 19.0912 7.33543 23.918 13.3251 23.918C18.035 23.918 22.0468 20.932 23.5753 16.7502C23.6134 16.6436 23.5575 16.5242 23.4509 16.4861Z" fill="#1C1C1C"/>
</svg>
