<svg viewBox="0 0 100 100" fill="currentcolor" xmlns="http://www.w3.org/2000/svg">
<path id="Vector" d="M94.7083 94.7083L5.29167 5.29163L0 10.5833L18.2917 28.875L27.5 48.2916L21.875 58.5C21.2083 59.6666 20.8333 61.0416 20.8333 62.5C20.8333 64.7101 21.7113 66.8297 23.2741 68.3925C24.8369 69.9553 26.9565 70.8333 29.1667 70.8333H60.25L66 76.5833C63.9167 78.0833 62.5 80.5416 62.5 83.3333C62.5 85.5434 63.378 87.663 64.9408 89.2258C66.5036 90.7886 68.6232 91.6666 70.8333 91.6666C73.625 91.6666 76.0833 90.2916 77.5833 88.1666L89.4167 100L94.7083 94.7083ZM30.9167 62.5C30.6404 62.5 30.3754 62.3902 30.1801 62.1949C29.9847 61.9995 29.875 61.7346 29.875 61.4583L30 60.9583L33.75 54.1666H43.5833L51.9167 62.5H30.9167ZM64.7917 54.1666C67.9167 54.1666 70.6667 52.4583 72.0833 49.875L87 22.9166C87.3333 22.25 87.5 21.5416 87.5 20.8333C87.5 19.7282 87.061 18.6684 86.2796 17.887C85.4982 17.1056 84.4384 16.6666 83.3333 16.6666H27.25L64.7917 54.1666ZM29.1667 75C26.9565 75 24.8369 75.8779 23.2741 77.4407C21.7113 79.0035 20.8333 81.1232 20.8333 83.3333C20.8333 85.5434 21.7113 87.663 23.2741 89.2258C24.8369 90.7886 26.9565 91.6666 29.1667 91.6666C31.3768 91.6666 33.4964 90.7886 35.0592 89.2258C36.622 87.663 37.5 85.5434 37.5 83.3333C37.5 81.1232 36.622 79.0035 35.0592 77.4407C33.4964 75.8779 31.3768 75 29.1667 75Z" fill="currentcolor"/>
</svg>
