<svg width="100%" height="100%" viewBox="0 0 19 26" fill="none" xmlns="http://www.w3.org/2000/svg">
<g id="mdi:fire" clip-path="url(#clip0_919_2784)">
<path id="Vector" d="M17.2237 11.8238C16.9188 11.4006 16.5477 11.0339 16.203 10.6671C15.3149 9.82078 14.3074 9.21423 13.4591 8.32557C11.4839 6.26613 11.0465 2.86664 12.3058 0.25708C11.0465 0.581512 9.94627 1.31501 9.0051 2.11904C5.57185 5.05303 4.21975 10.2298 5.83696 14.6732C5.88999 14.8142 5.94301 14.9553 5.94301 15.1386C5.94301 15.449 5.74417 15.7311 5.47906 15.8439C5.17417 15.985 4.85603 15.9004 4.60417 15.6747C4.52849 15.6081 4.46549 15.5267 4.41859 15.4349C2.92068 13.4177 2.68208 10.5261 3.68952 8.21272C1.4758 10.1311 0.26952 13.3754 0.441845 16.4364C0.52138 17.1417 0.600915 17.8469 0.826264 18.5522C1.01185 19.3986 1.36975 20.2449 1.76743 20.9925C3.19906 23.4328 5.67789 25.1819 8.34231 25.5346C11.1791 25.9154 14.2146 25.3653 16.3886 23.2777C18.8144 20.9361 19.6628 17.184 18.4167 13.9679L18.2444 13.6011C17.966 12.9523 17.2237 11.8238 17.2237 11.8238ZM13.0349 20.7104C12.6637 21.0489 12.0539 21.4157 11.5767 21.5568C10.0921 22.121 8.60743 21.3311 7.73254 20.4001C9.30999 20.0051 10.2511 18.7638 10.5295 17.5084C10.7549 16.3799 10.3307 15.449 10.1584 14.3628C9.99929 13.319 10.0258 12.4303 10.3837 11.457C10.6356 11.9931 10.9007 12.5291 11.2188 12.9523C12.2395 14.3628 13.8435 14.9835 14.1881 16.9019C14.2411 17.0993 14.2677 17.2968 14.2677 17.5084C14.3074 18.6651 13.8302 19.9346 13.0349 20.7104Z" fill="white"/>
</g>
<defs>
<clipPath id="clip0_919_2784">
<rect width="100%" height="100%" fill="white"/>
</clipPath>
</defs>
</svg>
