<svg viewBox="0 0 28 28" fill="currentcolor" xmlns="http://www.w3.org/2000/svg">
<path fill-rule="evenodd" clip-rule="evenodd" d="M14.0001 1.16667C14.6444 1.16667 15.1667 1.689 15.1667 2.33333V7C15.1667 7.64433 14.6444 8.16667 14.0001 8.16667C13.3557 8.16667 12.8334 7.64433 12.8334 7V2.33333C12.8334 1.689 13.3557 1.16667 14.0001 1.16667Z" fill="currentcolor"/>
<path fill-rule="evenodd" clip-rule="evenodd" d="M12.8334 12.8333L24.5001 15.1667L21.0001 17.5L24.5001 21L21.0001 24.5L17.5001 21L15.1667 24.5L12.8334 12.8333Z" fill="white"/>
<path fill-rule="evenodd" clip-rule="evenodd" d="M12.0085 12.0084C12.2843 11.7325 12.6797 11.6128 13.0622 11.6893L24.7289 14.0227C25.1916 14.1152 25.553 14.4774 25.6446 14.9403C25.7361 15.4032 25.5399 15.8756 25.1472 16.1374L22.8313 17.6813L25.325 20.175C25.7807 20.6307 25.7807 21.3693 25.325 21.825L21.825 25.325C21.3694 25.7806 20.6307 25.7806 20.1751 25.325L17.6814 22.8312L16.1375 25.1472C15.8757 25.5398 15.4032 25.7361 14.9403 25.6445C14.4774 25.5529 14.1153 25.1915 14.0227 24.7288L11.6894 13.0621C11.6129 12.6796 11.7326 12.2842 12.0085 12.0084ZM14.3206 14.3205L15.7584 21.5093L16.5294 20.3528C16.7232 20.062 17.0373 19.8735 17.3851 19.839C17.7329 19.8046 18.0779 19.9279 18.325 20.175L21.0001 22.8501L22.8502 21L20.1751 18.325C19.928 18.0778 19.8047 17.7329 19.8391 17.385C19.8735 17.0372 20.0621 16.7232 20.3529 16.5293L21.5094 15.7583L14.3206 14.3205Z" fill="currentcolor"/>
<path fill-rule="evenodd" clip-rule="evenodd" d="M4.92562 4.92554C5.38124 4.46993 6.11993 4.46993 6.57554 4.92554L9.87546 8.22546C10.3311 8.68107 10.3311 9.41976 9.87546 9.87538C9.41984 10.331 8.68115 10.331 8.22554 9.87538L4.92562 6.57546C4.47001 6.11985 4.47001 5.38115 4.92562 4.92554ZM23.0745 4.92554C23.5301 5.38115 23.5301 6.11985 23.0745 6.57546L19.7746 9.87538C19.319 10.331 18.5803 10.331 18.1247 9.87538C17.6691 9.41976 17.6691 8.68107 18.1247 8.22546L21.4246 4.92554C21.8802 4.46993 22.6189 4.46993 23.0745 4.92554ZM1.16675 14C1.16675 13.3557 1.68908 12.8333 2.33341 12.8333H7.00008C7.64441 12.8333 8.16675 13.3557 8.16675 14C8.16675 14.6443 7.64441 15.1667 7.00008 15.1667H2.33341C1.68908 15.1667 1.16675 14.6443 1.16675 14ZM9.87546 18.1246C10.3311 18.5802 10.3311 19.3189 9.87546 19.7745L6.57554 23.0745C6.11993 23.5301 5.38123 23.5301 4.92562 23.0745C4.47001 22.6188 4.47001 21.8802 4.92562 21.4245L8.22554 18.1246C8.68115 17.669 9.41984 17.669 9.87546 18.1246Z" fill="currentcolor"/>
</svg>
