<svg  viewBox="0 0 40 40" fill="none" xmlns="http://www.w3.org/2000/svg">
<g clip-path="url(#clip0_663_4472)">
<path d="M20 39.8387C24.4018 39.8381 28.6784 38.3735 32.1565 35.6756C35.6345 32.9777 38.1166 29.1996 39.2118 24.9363C40.3071 20.6729 39.9533 16.1663 38.2063 12.1261C36.4592 8.08585 33.4181 4.74136 29.5617 2.61918C25.7052 0.496995 21.2525 -0.282359 16.9045 0.403815C12.5565 1.08999 8.56021 3.20272 5.54473 6.40939C2.52926 9.61606 0.665885 13.7345 0.247966 18.1165C-0.169952 22.4984 0.881323 26.8948 3.23628 30.6137L0.161285 39.8387L9.38628 36.7637C12.5594 38.7779 16.2415 39.8447 20 39.8387Z" fill="#F43B3B"/>
</g>
<g clip-path="url(#clip1_663_4472)">
<path d="M16.8333 27.2286H17.6667V21.0214H16.8333C16.3731 21.0214 16 20.6367 16 20.162V18.1094C16 17.6347 16.3731 17.25 16.8333 17.25H21.5C21.9603 17.25 22.3333 17.6347 22.3333 18.1094V27.2286H23.1667C23.6269 27.2286 24 27.6133 24 28.088V30.1406C24 30.6153 23.6269 31 23.1667 31H16.8333C16.3731 31 16 30.6153 16 30.1406V28.088C16 27.6133 16.3731 27.2286 16.8333 27.2286ZM20 9C18.3431 9 17 10.3851 17 12.0938C17 13.8024 18.3431 15.1875 20 15.1875C21.6569 15.1875 23 13.8024 23 12.0938C23 10.3851 21.6568 9 20 9Z" fill="white"/>
</g>
<defs>
<clipPath id="clip0_663_4472">
<rect  fill="white"/>
</clipPath>
<clipPath id="clip1_663_4472">
<rect width="8" height="22" fill="white" transform="translate(16 9)"/>
</clipPath>
</defs>
</svg>
