<svg  viewBox="0 0 25 25" fill="currentcolor" xmlns="http://www.w3.org/2000/svg">
<path d="M20.832 4.16667H4.16536C3.01953 4.16667 2.08203 5.10417 2.08203 6.25V18.75C2.08203 19.8958 3.01953 20.8333 4.16536 20.8333H20.832C21.9779 20.8333 22.9154 19.8958 22.9154 18.75V6.25C22.9154 5.10417 21.9779 4.16667 20.832 4.16667ZM20.4154 8.59375L13.6029 12.8542C12.9258 13.2813 12.0716 13.2813 11.3945 12.8542L4.58203 8.59375C4.47758 8.53512 4.38611 8.4559 4.31317 8.36089C4.24022 8.26588 4.1873 8.15706 4.15763 8.04101C4.12796 7.92496 4.12214 7.8041 4.14053 7.68574C4.15892 7.56737 4.20113 7.45397 4.26462 7.3524C4.3281 7.25082 4.41154 7.16318 4.50987 7.09479C4.60821 7.02639 4.7194 6.97866 4.83671 6.95448C4.95403 6.9303 5.07503 6.93017 5.1924 6.95411C5.30977 6.97805 5.42106 7.02556 5.51953 7.09375L12.4987 11.4583L19.4779 7.09375C19.5763 7.02556 19.6876 6.97805 19.805 6.95411C19.9224 6.93017 20.0434 6.9303 20.1607 6.95448C20.278 6.97866 20.3892 7.02639 20.4875 7.09479C20.5859 7.16318 20.6693 7.25082 20.7328 7.3524C20.7963 7.45397 20.8385 7.56737 20.8569 7.68574C20.8753 7.8041 20.8694 7.92496 20.8398 8.04101C20.8101 8.15706 20.7572 8.26588 20.6842 8.36089C20.6113 8.4559 20.5198 8.53512 20.4154 8.59375Z" fill="currentcolor"/>
</svg>
