<svg  viewBox="0 0 18 18" fill="currentcolor" xmlns="http://www.w3.org/2000/svg">
<g clip-path="url(#clip0_460_631)">
<path d="M16.8213 11.1096L15.267 9.7254C14.817 9.3249 14.817 8.6688 15.267 8.2683L16.8213 6.8832C17.2713 6.4827 17.1516 6.1101 16.5549 6.0516L14.4939 5.8563C13.8981 5.8005 13.5759 5.2866 13.782 4.7169L14.8755 1.6722C15.0807 1.1007 14.8296 0.8937 14.3184 1.2096L11.8875 2.7126C11.7671 2.78804 11.6326 2.83806 11.4921 2.8596C11.3517 2.88113 11.2083 2.87371 11.0708 2.8378C10.9333 2.80189 10.8046 2.73825 10.6927 2.65079C10.5807 2.56333 10.4878 2.45389 10.4196 2.3292L9.53943 0.7578C9.24333 0.2286 8.75463 0.2268 8.45313 0.7506L7.63503 2.1726C7.33173 2.6991 6.63783 2.9223 6.09333 2.673L4.65333 2.0124C4.10613 1.7604 3.68762 2.0502 3.72003 2.6568L3.79743 4.1103C3.83072 4.7169 3.38252 5.3406 2.80383 5.4972L1.41333 5.8698C0.835525 6.0264 0.729325 6.4818 1.17932 6.8823L2.73362 8.2674C3.18362 8.6679 3.18362 9.324 2.73362 9.7245L1.17932 11.1096C0.729325 11.5101 0.848125 11.8989 1.44303 11.9709L3.32853 12.1995C3.92342 12.2715 4.25462 12.8025 4.06472 13.3794L3.09812 16.3116C2.90823 16.8885 3.17913 17.1117 3.69933 16.8111L5.91603 15.5277C6.17463 15.3845 6.47731 15.3428 6.76502 15.4107C7.05272 15.4786 7.30482 15.6512 7.47213 15.8949L8.39193 17.28C8.72673 17.7831 9.22983 17.7561 9.50793 17.2188L10.317 15.6591C10.4517 15.4003 10.6822 15.2044 10.9592 15.1131C11.2363 15.0218 11.5381 15.0424 11.8002 15.1704L13.3608 15.9507C13.899 16.218 14.3121 15.9417 14.2797 15.3369L14.2014 13.8816C14.1699 13.275 14.6163 12.6531 15.1968 12.4965L16.5855 12.1221C17.1651 11.9655 17.2713 11.5101 16.8213 11.1096ZM9.90033 12.6H8.10033V10.8H9.90033V12.6ZM9.90033 9.9H8.10033V5.4H9.90033V9.9Z" fill="#1C1C1C"/>
</g>
<defs>
<clipPath id="clip0_460_631">
<rect fill="currentcolor"/>
</clipPath>
</defs>
</svg>
