<svg width="100%" height="100%" viewBox="0 0 13 13" fill="currentcolor" xmlns="http://www.w3.org/2000/svg">
<path d="M8.66666 4.54968L3.85936 9.37051C3.75103 9.47884 3.62229 9.53301 3.47315 9.53301C3.32402 9.53301 3.19546 9.47884 3.08749 9.37051C2.97915 9.26218 2.92499 9.13344 2.92499 8.9843C2.92499 8.83516 2.97915 8.70661 3.08749 8.59864L7.90832 3.79134H3.79165C3.63818 3.79134 3.50945 3.73934 3.40545 3.63534C3.30145 3.53134 3.24963 3.40279 3.24999 3.24968C3.24999 3.0962 3.30199 2.96747 3.40599 2.86347C3.50999 2.75947 3.63854 2.70765 3.79165 2.70801H9.20832C9.36179 2.70801 9.49053 2.76001 9.59453 2.86401C9.69853 2.96801 9.75035 3.09657 9.74999 3.24968V8.66634C9.74999 8.81982 9.69799 8.94855 9.59399 9.05255C9.48999 9.15655 9.36143 9.20837 9.20832 9.20801C9.05485 9.20801 8.92611 9.15601 8.82211 9.05201C8.71811 8.94801 8.66629 8.81945 8.66666 8.66634V4.54968Z" fill="currentcolor"/>
</svg>
