<svg viewBox="0 0 26 26" fill="none" xmlns="http://www.w3.org/2000/svg">
<g id="material-symbols:search-rounded">
<path id="Vector" d="M20.475 21.9917L14.4083 15.925C13.8667 16.3583 13.2438 16.7014 12.5396 16.9542C11.8354 17.2069 11.0861 17.3333 10.2917 17.3333C8.32361 17.3333 6.65817 16.6519 5.29533 15.2891C3.93178 13.9255 3.25 12.2597 3.25 10.2917C3.25 8.32361 3.93178 6.65781 5.29533 5.29425C6.65817 3.93142 8.32361 3.25 10.2917 3.25C12.2597 3.25 13.9255 3.93142 15.2891 5.29425C16.6519 6.65781 17.3333 8.32361 17.3333 10.2917C17.3333 11.0861 17.2069 11.8354 16.9542 12.5396C16.7014 13.2438 16.3583 13.8667 15.925 14.4083L22.0188 20.5021C22.2174 20.7007 22.3167 20.9444 22.3167 21.2333C22.3167 21.5222 22.2083 21.775 21.9917 21.9917C21.7931 22.1903 21.5403 22.2896 21.2333 22.2896C20.9264 22.2896 20.6736 22.1903 20.475 21.9917ZM10.2917 15.1667C11.6458 15.1667 12.7971 14.6929 13.7453 13.7453C14.6929 12.7971 15.1667 11.6458 15.1667 10.2917C15.1667 8.9375 14.6929 7.78628 13.7453 6.838C12.7971 5.89044 11.6458 5.41667 10.2917 5.41667C8.9375 5.41667 7.78628 5.89044 6.838 6.838C5.89044 7.78628 5.41667 8.9375 5.41667 10.2917C5.41667 11.6458 5.89044 12.7971 6.838 13.7453C7.78628 14.6929 8.9375 15.1667 10.2917 15.1667Z" fill="white"/>
</g>
</svg>
