<svg viewBox="0 0 40 40" fill="none" xmlns="http://www.w3.org/2000/svg">
<circle cx="20" cy="20" r="20" fill="#F43B3B"/>
<path d="M29.4875 14.0417L25.5 17.9833C25.5 17.9833 24.3083 17.9833 23.1167 16.7917C21.925 15.6 21.925 14.4083 21.925 14.4083L25.9125 10.4208C23.6667 9.87084 20.9625 10.6042 19.3125 12.2542C16.8375 14.7292 19.0375 17.8917 18.3958 18.5333C14.9125 22.1542 11.3375 24.9042 11.2459 25.0417C10.1917 26.0958 10.1459 27.7917 11.1542 28.8C12.1625 29.8083 13.8584 29.7625 14.9125 28.7083C15.05 28.5708 17.9833 24.8583 21.4208 21.4208C22.0625 20.7792 25.0875 23.1167 27.6542 20.5958C29.2583 18.9458 30.0375 16.2875 29.4875 14.0417ZM13.3084 27.8375C12.6667 27.8375 12.1625 27.3333 12.1625 26.6917C12.1625 26.0042 12.6667 25.5 13.3084 25.5C13.95 25.5 14.4542 26.0042 14.4542 26.6458C14.4542 27.2875 13.95 27.8375 13.3084 27.8375Z" fill="white"/>
</svg>
