<svg width="100%" height="100%" viewBox="0 0 37 24" fill="currentcolor" xmlns="http://www.w3.org/2000/svg">
<path d="M11 12.7222H6.77657V17H4.22343V12.7222H0V10.2778H4.22343V6H6.77657V10.2778H11V12.7222Z" fill="currentcolor"/>
<path d="M32 18.6667C30.705 18.6667 29.6666 19.705 29.6666 21C29.6666 21.6188 29.9125 22.2123 30.3501 22.6499C30.7876 23.0875 31.3811 23.3333 32 23.3333C32.6188 23.3333 33.2123 23.0875 33.6499 22.6499C34.0875 22.2123 34.3333 21.6188 34.3333 21C34.3333 20.3812 34.0875 19.7877 33.6499 19.3501C33.2123 18.9125 32.6188 18.6667 32 18.6667ZM13.3333 0V2.33333H15.6666L19.8666 11.1883L18.28 14.0467C18.105 14.3733 18 14.7583 18 15.1667C18 15.7855 18.2458 16.379 18.6834 16.8166C19.121 17.2542 19.7145 17.5 20.3333 17.5H34.3333V15.1667H20.8233C20.746 15.1667 20.6718 15.1359 20.6171 15.0812C20.5624 15.0265 20.5316 14.9524 20.5316 14.875C20.5316 14.8167 20.5433 14.77 20.5666 14.735L21.6166 12.8333H30.3083C31.1833 12.8333 31.9533 12.3433 32.35 11.6317L36.5266 4.08333C36.6083 3.89667 36.6666 3.69833 36.6666 3.5C36.6666 3.19058 36.5437 2.89383 36.3249 2.67504C36.1061 2.45625 35.8094 2.33333 35.5 2.33333H18.245L17.1483 0M20.3333 18.6667C19.0383 18.6667 18 19.705 18 21C18 21.6188 18.2458 22.2123 18.6834 22.6499C19.121 23.0875 19.7145 23.3333 20.3333 23.3333C20.9521 23.3333 21.5456 23.0875 21.9832 22.6499C22.4208 22.2123 22.6666 21.6188 22.6666 21C22.6666 20.3812 22.4208 19.7877 21.9832 19.3501C21.5456 18.9125 20.9521 18.6667 20.3333 18.6667Z" fill="currentcolor"/>
</svg>
