<svg  viewBox="0 0 40 40" fill="currentcolor" xmlns="http://www.w3.org/2000/svg">

<path id="Vector" d="M3.33872 36.6667L5.59205 28.3867C4.10728 25.8414 3.32721 22.9467 3.33205 20C3.33205 10.795 10.7937 3.33333 19.9987 3.33333C29.2037 3.33333 36.6654 10.795 36.6654 20C36.6654 29.205 29.2037 36.6667 19.9987 36.6667C17.0533 36.6714 14.1598 35.8919 11.6154 34.4083L3.33872 36.6667ZM13.9837 12.18C13.7685 12.1934 13.5582 12.2501 13.3654 12.3467C13.1846 12.449 13.0195 12.577 12.8754 12.7267C12.6754 12.915 12.5621 13.0783 12.4404 13.2367C11.8244 14.0383 11.4931 15.0224 11.4987 16.0333C11.5021 16.85 11.7154 17.645 12.0487 18.3883C12.7304 19.8917 13.8521 21.4833 15.3337 22.9583C15.6904 23.3133 16.0387 23.67 16.4137 24.0017C18.2527 25.6208 20.4441 26.7884 22.8137 27.4117L23.7621 27.5567C24.0704 27.5733 24.3787 27.55 24.6887 27.535C25.1741 27.5099 25.6481 27.3785 26.0771 27.15C26.2953 27.0376 26.5083 26.9152 26.7154 26.7833C26.7154 26.7833 26.7871 26.7367 26.9237 26.6333C27.1487 26.4667 27.2871 26.3483 27.4737 26.1533C27.6121 26.01 27.7321 25.8417 27.8237 25.65C27.9537 25.3783 28.0837 24.86 28.1371 24.4283C28.1771 24.0983 28.1654 23.9183 28.1604 23.8067C28.1537 23.6283 28.0054 23.4433 27.8437 23.365L26.8737 22.93C26.8737 22.93 25.4237 22.2983 24.5387 21.895C24.4454 21.8543 24.3454 21.8312 24.2437 21.8267C24.1297 21.815 24.0145 21.8278 23.9058 21.8643C23.7971 21.9008 23.6975 21.9601 23.6137 22.0383V22.035C23.6054 22.035 23.4937 22.13 22.2887 23.59C22.2196 23.6829 22.1243 23.7532 22.0151 23.7918C21.9058 23.8303 21.7876 23.8355 21.6754 23.8067C21.5668 23.7776 21.4604 23.7409 21.3571 23.6967C21.1504 23.61 21.0787 23.5767 20.9371 23.515L20.9287 23.5117C19.9752 23.0954 19.0924 22.5331 18.3121 21.845C18.1021 21.6617 17.9071 21.4617 17.7071 21.2683C17.0513 20.6404 16.4799 19.93 16.0071 19.155L15.9087 18.9967C15.8381 18.8903 15.781 18.7755 15.7387 18.655C15.6754 18.41 15.8404 18.2133 15.8404 18.2133C15.8404 18.2133 16.2454 17.77 16.4337 17.53C16.5905 17.3305 16.7368 17.123 16.8721 16.9083C17.0687 16.5917 17.1304 16.2667 17.0271 16.015C16.5604 14.875 16.0771 13.74 15.5804 12.6133C15.4821 12.39 15.1904 12.23 14.9254 12.1983C14.8354 12.1883 14.7454 12.1783 14.6554 12.1717C14.4316 12.1605 14.2073 12.1644 13.9837 12.18Z" fill="currentcolor"/>

</svg>
