<svg  viewBox="0 0 43 40" fill="currentcolor" xmlns="http://www.w3.org/2000/svg">

<path id="Vector" d="M21.9359 6.66667C22.8926 6.67167 25.2863 6.69333 27.8304 6.78833L28.7334 6.825C31.2937 6.93667 33.8522 7.13 35.1225 7.45833C36.8157 7.90167 38.1451 9.19167 38.5948 10.8283C39.3114 13.4283 39.401 18.4983 39.4118 19.7267L39.4136 19.98V20.27C39.401 21.4983 39.3114 26.57 38.5948 29.1683C38.1397 30.81 36.8085 32.1017 35.1225 32.5383C33.8522 32.8667 31.2937 33.06 28.7334 33.1717L27.8304 33.21C25.2863 33.3033 22.8926 33.3267 21.9359 33.33L21.5148 33.3317H21.0579C19.0334 33.32 10.5659 33.235 7.87128 32.5383C6.17995 32.095 4.84874 30.805 4.39903 29.1683C3.68236 26.5683 3.59278 21.4983 3.58203 20.27V19.7267C3.59278 18.4983 3.68236 13.4267 4.39903 10.8283C4.85411 9.18667 6.18532 7.895 7.87307 7.46C10.5659 6.76167 19.0352 6.67667 21.0597 6.66667H21.9359ZM17.9136 14.1667V25.8333L28.6636 20L17.9136 14.1667Z" fill="currentcolor"/>

</svg>
